# xmcd
#
# Track frame offsets: 
#        150
#        13685
#        23992
#        35427
#        47292
#        57611
#        70819
#        83353
#        97027
#        108313
#        120899
#        134590
#        148418
#        159810
#
# Disc length: 2311 seconds
#
# Revision: 1
# Processed by: cddbd v1.5.2PL0 Copyright (c) Steve Scherf et al.
# Submitted via: ExactAudioCopy v0.95b3
#
DISCID=b309050e
DTITLE=Sahm Doug - He's About A Groover [CD1]
DYEAR=0
DGENRE=Country
TTITLE0=Sapphire
TTITLE1=Whirlaway
TTITLE2=Crazy Daisy (Pharohs)
TTITLE3=Just A Moment
TTITLE4=If You Ever Need Me
TTITLE5=Why Why Why
TTITLE6=Slow Down
TTITLE7=Baby Tell Me
TTITLE8=Crazy Daisy (Knights)
TTITLE9=Can't Believe You Wanna Leave
TTITLE10=More And More
TTITLE11=La Cucaracha
TTITLE12=Peanuts
TTITLE13=Scratchy
EXTD=YEAR: 0
EXTT0=
EXTT1=
EXTT2=
EXTT3=
EXTT4=
EXTT5=
EXTT6=
EXTT7=
EXTT8=
EXTT9=
EXTT10=
EXTT11=
EXTT12=
EXTT13=
PLAYORDER=
